<svg width="160" height="86" viewBox="0 0 160 86" fill="none" xmlns="http://www.w3.org/2000/svg">
<rect x="17.5" y="0.5" width="135" height="41" rx="9.5" fill="white" stroke="#D96207"/>
<path fill-rule="evenodd" clip-rule="evenodd" d="M154.223 37.1952C153.25 32.9725 145.634 30.4479 142.37 29.4338C129.89 25.5178 116.659 27.8292 103.92 28.7028C91.4246 29.575 80.9547 24.8103 68.9181 22.7579C57.8894 20.8943 46.2629 22.7108 35.5415 25.5649C30.4976 26.8864 24.7179 28.419 20.5373 31.7694C18.5798 33.3262 17.4464 35.331 18.5167 37.7843C19.3435 39.6713 22.104 42.479 20.1624 44.508C14.9885 49.9337 1.31283 48.1644 0.0633148 57.765C-0.879628 65.0308 8.936 68.9703 14.4344 69.8667C28.8028 72.2023 44.2934 63.0018 58.0971 68.6636C70.4476 73.7121 81.1923 80.4822 95.1002 75.4337C105.642 71.589 110.174 61.7516 122.471 60.9023C131.067 60.3125 139.582 61.7516 148.159 61.9171C151.49 61.9641 156.197 62.0583 158.743 59.4167C161.115 56.9399 159.833 53.4012 157.356 51.6318C153.946 49.1785 143.928 48.8248 142.768 44.0594C142.273 42.0305 145.119 41.5826 146.435 41.4407C149.277 41.134 154.993 40.5207 154.223 37.1952Z" fill="#D96207"/>
<mask id="mask0_919_2606" style="mask-type:luminance" maskUnits="userSpaceOnUse" x="3" y="22" width="151" height="52">
<path d="M3.28516 22H153.498V73.2042H3.28516V22Z" fill="white"/>
</mask>
<g mask="url(#mask0_919_2606)">
<mask id="mask1_919_2606" style="mask-type:luminance" maskUnits="userSpaceOnUse" x="-1" y="22" width="161" height="55">
<path fill-rule="evenodd" clip-rule="evenodd" d="M154.215 37.1885C153.241 32.9888 145.613 30.4775 142.345 29.4688C129.847 25.5734 116.598 27.8726 103.84 28.7416C91.3276 29.6099 80.8428 24.8697 68.7892 22.8281C57.7449 20.9744 46.1019 22.7812 35.3653 25.6203C30.3143 26.9341 24.5264 28.4593 20.3399 31.7914C18.3796 33.3406 17.2446 35.3348 18.3165 37.7751C19.1445 39.6522 21.9089 42.4451 19.9645 44.4633C14.7833 49.8604 1.08825 48.1004 -0.163036 57.6503C-1.10731 64.8777 8.72221 68.7964 14.2284 69.6881C28.6172 72.0114 44.1296 62.8595 57.9529 68.4914C70.3209 73.5132 81.0807 80.2475 95.0083 75.2257C105.565 71.4013 110.103 61.6159 122.418 60.771C131.026 60.1843 139.553 61.6159 148.142 61.7804C151.478 61.8273 156.192 61.9209 158.741 59.2926C161.117 56.8289 159.833 53.3095 157.353 51.5495C153.938 49.1092 143.905 48.7573 142.744 44.0171C142.247 41.9989 145.098 41.5534 146.415 41.4122C149.261 41.1072 154.986 40.4971 154.215 37.1885Z" fill="white"/>
</mask>
<g mask="url(#mask1_919_2606)">
<path fill-rule="evenodd" clip-rule="evenodd" d="M16.9475 34.0302C16.9256 34.0349 19.4434 37.2305 19.6707 37.5175C21.4768 39.7979 22.879 43.2738 21.2609 46.0158C17.927 51.6618 10.8592 49.4255 6.10856 52.7823C2.57467 55.2741 2.49359 60.4872 5.5497 63.3985C6.71128 64.5056 8.14132 65.3124 9.66107 65.8067C14.7194 67.443 20.2415 66.0623 25.3058 65.1759C33.7146 63.7069 42.946 61.7001 51.5309 62.4058C56.4131 62.8072 60.1696 65.3305 64.4571 67.3942C72.208 71.1303 81.0926 74.5479 89.8044 72.6474C96.7087 71.143 100.047 66.0757 105.296 62.0091C108.282 59.6932 111.945 58.0837 115.581 57.1532C122.109 55.4768 129.474 55.252 136.191 55.8166C138.981 56.0501 141.641 56.8709 144.471 56.9411C146.618 56.9987 152.98 57.3512 153.339 54.0526C153.585 51.7808 150.789 50.6958 149.138 50.0342C145.957 48.7565 140.795 47.0453 139.897 43.1908C138.263 36.1903 156.748 42.5654 152.787 35.5835C151.289 32.9418 145.646 25 143.135 24.4401C133.133 22.2105 119.099 27.0089 108.847 26.1386C97.1858 25.1479 86.814 18.9527 75.4315 16.5699C53.0015 11.8745 19.9631 16.8642 5.16561 36.3916" fill="white"/>
</g>
</g>
<path fill-rule="evenodd" clip-rule="evenodd" d="M131.86 34.8273C127.764 33.4241 121.68 34.5969 117.544 34.9315C108.944 35.6274 100.218 36.6826 91.5835 36.0161C81.5568 35.2427 73.4197 29.9773 63.8351 27.8288C56.8559 26.264 49.4758 27.1643 42.6051 28.87C38.0669 29.9967 32.3347 31.7237 29.2646 35.5539C26.2597 39.302 29.3884 43.6157 27.6639 47.532C25.9934 51.3254 16.7304 52.1616 17.4675 57.0056C17.9455 60.1499 22.7355 60.5459 25.1112 60.5065C33.98 60.3696 42.2469 55.9798 51.0858 55.2839C55.7672 54.9185 60.7656 55.2752 64.931 57.6441C70.3888 60.7443 73.8997 65.4427 80.839 64.5578C89.6899 63.4304 96.446 56.0278 105.184 54.0289C110.775 52.7473 116.499 52.4788 122.215 52.5363C125.995 52.5757 131.092 53.1794 134.503 51.1358C138.612 48.672 131.627 44.4338 132.04 41.5573C132.29 39.7962 142.559 38.7162 138.427 36.2919C137.707 35.8692 136.913 35.6367 136.118 35.395" fill="white"/>
<path fill-rule="evenodd" clip-rule="evenodd" d="M56.3893 33.1192C55.569 32.02 53.5366 31.8059 52.3769 31.6191C47.6251 30.8562 43.1797 32.288 38.9166 34.4461C37.5858 35.1207 36.0374 35.7127 34.8869 36.7221C34.4871 37.0734 33.8353 37.6259 34.1363 38.2725C34.4725 38.9945 35.5858 39.159 36.2317 39.1569C38.2117 39.149 40.2256 38.3084 42.1764 37.983C45.1318 37.4901 46.9269 39.131 49.6515 39.8113C52.1402 40.4328 54.8814 40.1526 57.4092 39.9917C59.5059 39.858 63.3426 38.9995 61.102 35.9311C60.7525 35.4527 60.5204 35.2666 60.0993 34.8614" fill="white"/>
<path fill-rule="evenodd" clip-rule="evenodd" d="M40.4086 40.9041C39.7685 40.7082 38.7981 40.9243 38.1552 40.9819C36.4651 41.1345 34.761 41.3022 33.2267 41.9561C32.6144 42.2171 30.8667 43.0917 32.1322 43.6541C33.1865 44.123 34.5387 43.9462 35.6629 43.8252C37.3808 43.6402 39.0765 43.4484 40.8048 43.3395C42.6682 43.2214 43.6317 42.3658 41.7621 41.5886" fill="white"/>
<path fill-rule="evenodd" clip-rule="evenodd" d="M72.596 33.4865C71.1252 32.7617 68.6924 32.5758 67.1058 32.7043C66.7911 32.7292 64.855 32.8022 64.9541 33.3817C65.0458 33.9151 65.8559 34.4048 66.287 34.6612C67.6929 35.4964 69.1369 36.7085 70.6198 37.3766C71.8114 37.9137 73.2387 37.7228 74.3072 37.0304C75.5939 36.1963 75.5424 35.1777 74.261 34.4528" fill="white"/>
<path fill-rule="evenodd" clip-rule="evenodd" d="M114.604 46.0285C114.444 45.0418 113.413 44.7168 112.466 44.6242C110.662 44.4492 108.68 44.9231 107.139 45.8312C106.474 46.2239 104.963 47.2534 105.437 48.2177C105.974 49.3072 108.445 49.3244 109.462 49.4381C112.579 49.7874 115.517 49.5977 118.564 48.8691C119.49 48.6475 120.681 48.5753 121.529 48.1238C122.263 47.7298 122.007 47.0809 121.433 46.6729C120.268 45.8484 118.651 45.5796 117.26 45.395" fill="white"/>
<path fill-rule="evenodd" clip-rule="evenodd" d="M124.703 40.9993C123.696 40.8884 122.681 40.809 121.662 40.8259C121.306 40.8319 120.74 40.8568 120.388 40.8904C120.059 40.9213 117.999 41.0894 118.02 41.7181C118.033 42.141 119.166 42.6136 119.441 42.7589C120.9 43.5361 122.989 44.4041 124.63 44.5688C126.783 44.7853 127.498 43.1562 125.752 41.8297" fill="white"/>
<path fill-rule="evenodd" clip-rule="evenodd" d="M68.7084 74.6068C67.7874 73.616 64.0447 72.6373 62.3862 72.118C58.0304 70.7554 53.5422 69.3652 48.9415 69.1005C46.748 68.9745 44.6479 69.1025 42.663 69.9263C40.7622 70.7143 39.162 71.9826 37.0281 72.3086C32.7008 72.9687 28.0623 71.7961 23.9005 73.3412C23.1808 73.6093 22.4578 73.9218 21.815 74.3131C20.1637 75.3201 20.2928 76.8551 21.5706 78.2076C23.2755 80.0121 25.9423 81.0325 28.4496 81.4663C33.3298 82.3109 38.1371 80.0323 42.9014 81.0244C46.4382 81.7606 48.5575 84.9317 52.0857 85.806C55.4834 86.6472 57.4299 84.4629 60.8873 84.7552C63.2959 84.9593 67.5438 86.1865 69.2956 84.052C71.0647 81.896 66.5328 80.1225 65.9561 78.3504C65.4642 76.8396 70.7469 76.8006 68.7084 74.6068Z" fill="#D96207"/>
<mask id="mask2_919_2606" style="mask-type:luminance" maskUnits="userSpaceOnUse" x="21" y="69" width="49" height="16">
<path d="M21.6577 69.0942H69.6305V84.6781H21.6577V69.0942Z" fill="white"/>
</mask>
<g mask="url(#mask2_919_2606)">
<mask id="mask3_919_2606" style="mask-type:luminance" maskUnits="userSpaceOnUse" x="19" y="65" width="53" height="24">
<path d="M21.5669 65.2102L71.2487 72.1727L69.0013 88.4242L19.3195 81.461L21.5669 65.2102Z" fill="white"/>
</mask>
<g mask="url(#mask3_919_2606)">
<mask id="mask4_919_2606" style="mask-type:luminance" maskUnits="userSpaceOnUse" x="20" y="69" width="50" height="17">
<path fill-rule="evenodd" clip-rule="evenodd" d="M68.6017 74.6846C67.6774 73.7006 63.9209 72.7286 62.2563 72.2128C57.8844 70.8596 53.3797 69.4788 48.762 69.2159C46.5604 69.0908 44.4526 69.2179 42.4603 70.0361C40.5525 70.8187 38.9464 72.0784 36.8046 72.4022C32.4614 73.0577 27.8058 71.8931 23.6286 73.4277C22.9063 73.6939 22.1806 74.0043 21.5354 74.393C19.8781 75.393 20.0077 76.9176 21.2902 78.2608C23.0013 80.053 25.678 81.0664 28.1945 81.4972C33.0927 82.3361 37.9177 80.073 42.6996 81.0584C46.2494 81.7896 48.3765 84.939 51.9177 85.8073C55.328 86.6428 57.2817 84.4734 60.7518 84.7637C63.1693 84.9664 67.4329 86.1852 69.1912 84.0653C70.9668 81.924 66.4181 80.1627 65.8393 78.4026C65.3456 76.9022 70.6478 76.8634 68.6017 74.6846Z" fill="white"/>
</mask>
<g mask="url(#mask4_919_2606)">
<path fill-rule="evenodd" clip-rule="evenodd" d="M70.1209 74.9582C69.7481 74.5194 69.0165 74.2311 68.5028 73.9561C67.0881 73.1969 65.666 72.453 64.1642 71.8409C62.2643 71.0663 60.2715 70.4 58.2241 70.0648C55.865 69.6788 53.4841 69.721 51.1124 69.5243C48.5574 69.3136 45.9937 68.9323 43.4997 69.5283C42.1707 69.8461 41.0935 70.497 39.8914 71.0422C37.9989 71.9011 35.9674 72.6851 33.8569 73.0517C30.7603 73.5895 27.6464 73.7762 24.5544 74.3254C23.5044 74.512 21.7116 74.8445 21.8232 76.1048C21.988 77.9698 24.8042 79.5238 26.5765 80.0469C28.2365 80.5359 30.0831 80.7273 31.8036 80.6216C33.0854 80.542 34.2949 80.18 35.5488 79.9861C37.6779 79.6563 40.1811 79.5358 42.3355 79.958C43.7436 80.2342 44.8992 81.0637 46.1877 81.6096C47.9493 82.3555 49.8332 82.8512 51.6301 83.5248C52.486 83.8452 53.3479 84.4138 54.2742 84.5329C56.3641 84.8012 58.3517 83.4358 60.4655 83.47C62.376 83.5007 66.0674 84.838 67.1452 82.7288C67.8735 81.3025 65.0035 80.2991 64.1349 79.5151C63.6126 79.0442 63.2339 78.3384 63.6977 77.7511C64.1323 77.2019 65.034 77.044 65.7444 76.9624C66.2202 76.9075 66.7046 76.8895 67.1871 76.8888C67.6702 76.8881 68.1539 76.9149 68.6377 76.9243C70.392 76.9577 73.5704 76.8888 73.3059 74.6645C73.2674 74.3421 73.1597 74.0257 72.9976 73.7314C72.7677 73.3166 72.4308 72.9514 72.056 72.6303C71.4087 72.077 70.6266 71.6991 69.9495 71.1934" fill="white"/>
</g>
</g>
</g>
<path fill-rule="evenodd" clip-rule="evenodd" d="M62.2495 73.9076C61.9578 73.6542 61.2801 73.6128 60.9267 73.5222C59.5818 73.1733 58.2434 72.7957 56.901 72.4341C53.8266 71.6051 50.0381 69.8677 46.8207 70.4202C45.1081 70.7143 43.8944 71.8901 42.4117 72.6251C40.7036 73.4731 38.7038 73.8311 36.7995 74.1147C34.4339 74.4664 31.8071 74.2368 29.5298 74.9269C28.7606 75.1599 27.5599 75.791 27.7412 76.7457C27.966 77.9215 29.8488 78.2185 30.8215 78.2641C33.7263 78.3996 36.5409 77.513 39.4386 77.6773C41.4203 77.7903 42.9075 79.0068 44.7702 79.5122C46.2931 79.9257 48.0636 79.7783 49.504 80.4466C50.4617 80.8909 51.1368 81.8386 52.1711 82.1257C53.7642 82.5687 55.3274 81.5269 56.8997 81.5073C58.2466 81.4897 59.598 81.9151 60.9403 81.8288C61.4231 81.7979 62.0137 81.6596 62.1943 81.1815C62.7121 79.8134 60.6122 78.4319 60.6889 77.0279C60.7526 75.8605 62.5165 75.7531 63.4027 75.4906C64.2597 75.2372 64.4475 74.7472 63.6555 74.2158" fill="white"/>
<path fill-rule="evenodd" clip-rule="evenodd" d="M50.5402 72.4134C50.5973 72.1306 49.5089 72.199 49.3717 72.2145C48.4279 72.3203 47.4791 72.5726 46.606 72.8645C46.3162 72.9611 45.7634 73.1519 45.9967 73.4933C46.2207 73.8208 46.7767 73.9668 47.1955 74.0013C48.0537 74.0708 48.7785 73.6766 49.6125 73.6501C50.3658 73.626 51.023 74.1059 51.7608 74.0772C52.3683 74.0542 52.3751 73.6283 52.1132 73.2668C51.9928 73.1007 51.8278 72.9737 51.6565 72.8438" fill="white"/>
<path fill-rule="evenodd" clip-rule="evenodd" d="M56.8484 78.6258C56.6983 78.5392 56.4138 78.5683 56.2497 78.5778C55.5648 78.6163 53.8916 79.2043 55.0524 79.828C55.6067 80.1259 56.5366 80.1002 57.1511 80.0063C57.3881 79.97 57.6403 79.856 57.8835 79.8543C58.3551 79.8521 58.7775 80.4741 59.2941 80.3316C59.6205 80.241 59.1373 79.8386 59.0395 79.7526C58.5131 79.2887 57.8749 78.903 57.3085 78.4705" fill="white"/>
<path fill-rule="evenodd" clip-rule="evenodd" d="M42.2998 75.0796C41.3943 74.6603 40.1091 74.6561 39.1715 74.7678C39.0871 74.7779 37.6452 74.9922 38.1127 75.33C39.0583 76.0122 40.4152 76.071 41.47 76.4214C42.2803 76.6903 43.076 77.2264 43.9399 77.2154C44.327 77.2104 44.4187 76.8289 44.319 76.4618C44.1917 75.9929 43.8334 75.6694 43.4925 75.3846" fill="white"/>
<path d="M43.0279 23.7822C43.0279 23.7893 43.0279 23.7965 44.1692 23.8001C45.3105 23.8038 47.593 23.8038 47.1106 23.8813C46.6281 23.9589 43.3114 24.114 40.83 24.3569C38.3486 24.5998 36.8031 24.9258 35.953 25.1143C35.1028 25.3028 34.9949 25.3439 35.3165 25.3651C36.39 25.4358 37.6467 25.2892 38.5545 25.1272C38.9828 25.0508 39.3531 25.0323 40.402 24.8522C41.451 24.672 43.1692 24.3427 44.1458 24.173C45.1223 24.0033 45.3051 24.0033 45.073 24.0033C44.8409 24.0033 44.1883 24.0033 43.516 24.0033" stroke="white" stroke-width="0.5" stroke-linecap="round"/>
<path d="M62.1875 16.2537L62.1628 16.2781" stroke="white" stroke-width="5" stroke-linecap="round"/>
<path d="M37.3044 25.8542C37.2881 25.8379 37.9251 25.7268 39.2705 25.4779C40.7195 25.2097 41.7809 24.952 42.3583 24.9307C43.2696 24.8971 43.906 24.7712 44.7322 24.5257C45.4287 24.3187 46.7031 23.9975 47.5648 23.7271C48.8611 23.3203 49.3935 23.0223 49.6473 22.9326C49.9142 22.8384 50.7945 22.4869 51.4065 22.1326C51.5671 22.0396 50.1652 22.066 46.6166 22.8269C43.0679 23.5878 37.0934 25.0678 33.8595 25.8886C30.6257 26.7095 30.3137 26.8264 30.0083 26.9649C29.7029 27.1035 29.4138 27.2602 29.3033 27.3454C29.1929 27.4307 29.2699 27.4398 30.7633 27.0872C32.2566 26.7346 35.1639 26.0202 38.0666 25.2323C40.9694 24.4445 43.7795 23.605 46.0016 23.057C48.2237 22.509 49.7726 22.2778 51.8178 22.1207C53.863 21.9636 56.3575 21.8876 57.6906 21.8564C59.0236 21.8252 59.1196 21.8411 59.7918 21.9926C60.464 22.1441 61.7095 22.4306 63.5372 22.6443C65.3649 22.858 67.737 22.99 69.1512 23.1049C70.5654 23.2198 70.9499 23.3135 71.5123 23.4757" stroke="white" stroke-width="5" stroke-linecap="round"/>
<path d="M146.393 31.2486C146.372 31.2486 146.35 31.2486 144.432 31.1211C142.515 30.9935 138.702 30.7384 136.527 30.5584C133.923 30.3428 133.305 30.157 132.942 30.0994C132.333 30.0028 131.722 29.7559 130.396 29.3153C129.463 29.0055 127.963 28.6502 125.577 28.2254C123.191 27.8006 119.954 27.3501 117.582 27.1181C115.211 26.886 113.804 26.886 113.186 26.907C112.569 26.928 112.784 26.97 114.491 27.0598C116.197 27.1496 119.389 27.2859 121.587 27.4201C123.785 27.5542 124.893 27.682 126.872 27.8376C128.85 27.9931 131.666 28.1724 133.192 28.2863C134.871 28.4432 135.719 28.5928 136.929 28.7525C137.448 28.8068 137.775 28.8068 138.065 28.7831" stroke="white" stroke-width="5" stroke-linecap="round"/>
<path d="M123.447 28.7029C123.406 28.7029 123.365 28.7029 120.078 28.7029C116.791 28.7029 110.259 28.7029 106.176 28.8107C102.093 28.9184 100.656 29.134 99.1528 29.245C97.649 29.356 96.1216 29.356 95.0065 29.2432C93.2352 28.9048 92.4424 28.6139 92.0365 28.4571C91.7473 28.3587 91.2889 28.2222 90.7493 28.0223" stroke="white" stroke-width="5" stroke-linecap="round"/>
<path d="M67.7195 21.6609C67.7294 21.6609 67.7392 21.6609 70.3594 21.6609C72.9797 21.6609 78.21 21.6609 81.1867 21.7144C84.1635 21.7679 84.7283 21.8748 85.3033 22.0531C87.3183 22.6779 87.8372 23.0149 87.8973 23.1409C87.9918 23.3388 86.82 23.6984 84.8253 24.2062C83.6898 24.4953 82.2607 24.6624 80.8974 24.7722C78.2748 24.9834 76.8482 24.8625 76.7274 24.8253C76.6198 24.7921 77.4583 24.7765 80.0048 25.1758C82.057 25.4977 85.5971 26.374 88.2226 27.0802C90.848 27.7864 92.4374 28.3758 93.3449 28.7237C94.2523 29.0716 94.4298 29.1602 94.4614 29.2223C94.5201 29.3378 93.9187 29.3194 92.8729 29.101C92.1587 28.9147 91.072 28.5752 89.1942 27.8061C87.3163 27.037 84.6804 25.8486 81.9647 24.6242" stroke="white" stroke-width="5" stroke-linecap="round"/>
<path d="M148.329 31.8211C148.329 31.819 148.507 31.8207 148.794 31.834C148.945 31.8409 148.996 31.89 149.039 31.9227C149.11 31.9776 149.211 32.1015 149.322 32.2446C149.37 32.3065 149.397 32.3504 149.483 32.4488C149.57 32.5473 149.715 32.7 149.809 32.7948C149.904 32.8897 149.944 32.9221 150.001 32.9607" stroke="white" stroke-width="2" stroke-linecap="round"/>
<path d="M150.429 32.9052C150.441 32.9123 150.472 32.9467 150.536 33.0445C150.579 33.1025 150.617 33.1537 150.682 33.233C150.697 33.2496 150.704 33.2586 150.718 33.277" stroke="white" stroke-width="2" stroke-linecap="round"/>
<path d="M150.718 33.2771C150.729 33.291 150.766 33.3319 150.806 33.3504C150.817 33.3549 150.828 33.3613 150.839 33.3659C150.85 33.3705 150.861 33.3732 150.862 33.3792" stroke="white" stroke-width="2" stroke-linecap="round"/>
<path d="M150.611 33.9294H150.79" stroke="white" stroke-width="2" stroke-linecap="round"/>
<path d="M150.68 33.6807C150.681 33.6807 150.681 33.6807 150.693 33.6807C150.704 33.6807 150.726 33.6807 150.751 33.6812C150.775 33.6818 150.801 33.6828 150.82 33.684" stroke="white" stroke-width="2" stroke-linecap="round"/>
<path d="M150.198 34.3963C150.214 34.3963 150.261 34.3846 150.308 34.362C150.357 34.3445 150.398 34.3319 150.451 34.3299C150.492 34.3292 150.563 34.3292 150.636 34.3292" stroke="white" stroke-width="2" stroke-linecap="round"/>
<path d="M150.179 33.8207C150.18 33.8207 150.36 33.8207 150.636 33.8189C150.743 33.8134 150.774 33.8082 150.813 33.8055C150.83 33.8042 150.843 33.8028 150.832 33.8098" stroke="white" stroke-width="2" stroke-linecap="round"/>
<path d="M150.617 34.4777C150.651 34.4777 150.734 34.4613 150.782 34.4357C150.829 34.4035 150.877 34.3807 150.924 34.3594C150.927 34.3587 150.917 34.365 150.915 34.3716" stroke="white" stroke-width="2" stroke-linecap="round"/>
<path d="M152.449 32.91C152.451 32.91 152.452 33.0858 152.454 33.3627C152.455 33.5183 152.468 33.5689 152.491 33.6717C152.507 33.7443 152.529 33.8284 152.549 33.9154C152.567 33.9963 152.584 34.0451 152.622 34.1594C152.653 34.2554 152.663 34.308 152.682 34.367C152.705 34.4418 152.717 34.4903 152.749 34.6358C152.765 34.6789 152.777 34.7044 152.791 34.7422C152.801 34.7659 152.816 34.7989 152.846 34.853" stroke="#D96207" stroke-width="0.5" stroke-linecap="round"/>
<path d="M152.764 34.5615C152.764 34.5884 152.768 34.6592 152.848 34.7855C152.885 34.8431 152.947 34.9514 153.02 35.0679C153.05 35.1163 153.072 35.1611 153.098 35.2188C153.122 35.2701 153.154 35.3096 153.192 35.3619C153.232 35.417 153.27 35.4619 153.299 35.5164C153.323 35.562 153.347 35.6148 153.38 35.6823C153.413 35.7521 153.45 35.8319 153.474 35.8793C153.495 35.9203 153.513 35.9672 153.568 36.0924C153.618 36.2107 153.643 36.2943 153.675 36.381C153.68 36.3981 153.683 36.411 153.686 36.4312" stroke="#D96207" stroke-width="0.5" stroke-linecap="round"/>
<path d="M153.249 35.2661C153.252 35.2515 153.237 35.1851 153.054 34.8421C152.983 34.7083 152.925 34.5238 152.887 34.424C152.844 34.3095 152.817 34.2462 152.787 34.1659C152.74 34.0404 152.672 33.7868 152.662 33.6907C152.661 33.6781 152.659 33.6674 152.657 33.5366C152.655 33.4059 152.652 33.1554 152.652 33.0173C152.653 32.8792 152.657 32.8612 152.663 32.8423C152.668 32.8235 152.675 32.8044 152.688 32.7781" stroke="#D96207" stroke-width="0.5" stroke-linecap="round"/>
<path d="M152.726 32.4187C152.726 32.4197 152.726 32.4207 152.726 32.5987C152.726 32.7768 152.726 33.1318 152.727 33.3202C152.728 33.5421 152.735 33.5857 152.739 33.6547C152.745 33.7639 152.777 33.857 152.814 33.9936C152.846 34.11 152.894 34.2705 152.937 34.3697C152.963 34.4289 152.993 34.4888 153.032 34.5713C153.111 34.7301 153.142 34.7947 153.156 34.8505C153.159 34.8639 153.162 34.8765 153.173 34.9096" stroke="#D96207" stroke-width="0.5" stroke-linecap="round"/>
<path d="M153.113 34.8909C153.113 34.9044 153.131 34.9524 153.203 35.0765C153.252 35.1601 153.316 35.2545 153.339 35.303C153.345 35.3173 153.354 35.3352 153.355 35.3365C153.357 35.3377 153.35 35.3217 153.343 35.3053" stroke="#D96207" stroke-width="0.5" stroke-linecap="round"/>
<path d="M153.007 34.72C153.011 34.7287 153.045 34.7869 153.074 34.8456C153.112 34.9214 153.144 35.0076 153.178 35.0497C153.216 35.096 153.261 35.1537 153.301 35.2153C153.333 35.2656 153.354 35.3241 153.382 35.3889C153.413 35.4587 153.43 35.5125 153.453 35.5858C153.47 35.6415 153.489 35.6948 153.508 35.7612C153.525 35.8243 153.571 35.912 153.601 35.9796C153.647 36.081 153.663 36.1385 153.689 36.2077C153.707 36.2555 153.714 36.3033 153.733 36.3763C153.75 36.4433 153.78 36.5279 153.801 36.6146C153.805 36.632 153.809 36.6444 153.814 36.6643C153.82 36.6842 153.828 36.7113 153.839 36.7594" stroke="#D96207" stroke-width="0.5" stroke-linecap="round"/>
<path d="M153.082 34.8779C153.088 34.8816 153.112 34.9027 153.127 34.9212C153.138 34.9349 153.152 34.9551 153.166 34.9727C153.176 34.986 153.19 35.0032 153.219 35.023C153.239 35.0366 153.239 35.0593 153.246 35.0793C153.251 35.0932 153.257 35.1067 153.26 35.1138C153.264 35.1258 153.251 35.085 153.245 35.0671C153.243 35.059 153.236 35.0311 153.229 34.9974C153.227 34.9877 153.226 34.9935 153.227 34.9986C153.228 35.0263 153.251 35.0606 153.262 35.0787C153.28 35.1074 153.288 35.1298 153.297 35.1484C153.311 35.1803 153.336 35.2554 153.352 35.3089C153.358 35.3288 153.358 35.334 153.359 35.3394" stroke="#D96207" stroke-width="0.5" stroke-linecap="round"/>
<path d="M149.627 34.0526C149.672 34.0526 149.808 34.0479 149.871 34.0361C149.938 34.0236 150.069 34.0229 150.188 34.0154C150.277 34.0098 150.354 34.0115 150.459 34.0079C150.846 33.9948 150.9 33.9944 150.968 33.9869C151.038 33.9792 151.112 33.9783 151.185 33.9632C151.252 33.9494 151.336 33.9406 151.401 33.9296C151.493 33.9225 151.597 33.9178 151.685 33.9159C151.701 33.9141 151.658 33.9105 151.614 33.9067" stroke="white" stroke-width="0.5" stroke-linecap="round"/>
<path d="M152.35 35.1619C152.346 35.1498 152.325 35.1144 152.297 35.077C152.244 35.0069 152.168 34.8987 152.12 34.838C152.067 34.7704 152.053 34.7299 152.024 34.6819C151.976 34.601 151.954 34.5463 151.938 34.5067C151.93 34.4865 151.92 34.4641 151.908 34.427C151.887 34.3663 151.836 34.2388 151.783 34.0913C151.758 34.0208 151.75 33.9879 151.735 33.9207C151.723 33.8698 151.712 33.783 151.704 33.6126C151.696 33.4421 151.693 33.19 151.691 33.0504C151.688 32.9107 151.686 32.8911 151.685 32.814C151.683 32.7368 151.683 32.6026 151.683 32.4644" stroke="white" stroke-width="0.5" stroke-linecap="round"/>
<path d="M152.838 35.1355C152.838 35.1343 152.838 35.1331 152.829 35.1194C152.821 35.1057 152.804 35.0796 152.79 35.0562C152.776 35.0329 152.765 35.0131 152.752 34.9927" stroke="#D96207" stroke-width="0.5" stroke-linecap="round"/>
<path d="M152.795 35.1068C152.795 35.1062 152.795 35.1056 152.794 35.101C152.794 35.0964 152.792 35.0878 152.79 35.079C152.788 35.0702 152.784 35.0616 152.776 35.0416" stroke="#D96207" stroke-width="0.5" stroke-linecap="round"/>
<path d="M152.73 34.9766L152.727 34.9741" stroke="#D96207" stroke-width="0.5" stroke-linecap="round"/>
<path d="M152.685 34.8751H152.683" stroke="#D96207" stroke-width="0.5" stroke-linecap="round"/>
<path d="M152.807 35.173C152.805 35.1622 152.79 35.128 152.735 35.0556C152.694 35.0017 152.637 34.8767 152.602 34.8029C152.581 34.752 152.559 34.6917 152.531 34.6042C152.518 34.5626 152.508 34.5268 152.496 34.4736" stroke="#D96207" stroke-width="0.5" stroke-linecap="round"/>
<path d="M18.4765 36.7477C18.4747 36.7477 18.4737 36.7369 18.4684 36.7056C18.4525 36.6552 18.433 36.6095 18.4183 36.5929C18.4123 36.5912 18.4091 36.6032 18.3877 36.6358" stroke="#D96207" stroke-width="0.5" stroke-linecap="round"/>
<path d="M17.9915 34.0504C17.9985 34.068 18.0233 34.1197 18.0549 34.1975C18.0758 34.2493 18.0762 34.2998 18.0869 34.3471C18.102 34.4139 18.1297 34.5123 18.1596 34.6039C18.1968 34.7177 18.2529 34.7825 18.3518 35.0169C18.4132 35.1625 18.4094 35.2624 18.4276 35.3393C18.4357 35.3733 18.4719 35.4804 18.538 35.635C18.5866 35.7484 18.6312 35.801 18.6682 35.8638C18.7475 35.9986 18.8432 36.1528 18.924 36.312C19.0214 36.5037 19.0768 36.633 19.1078 36.6843C19.1567 36.7655 19.2022 36.8562 19.2467 36.9368C19.331 37.0894 19.4282 37.2262 19.5046 37.3629C19.5605 37.4628 19.586 37.5236 19.6166 37.5691C19.6624 37.6369 19.6987 37.72 19.7921 37.8988C19.8772 38.106 19.9046 38.2273 19.9379 38.3269C19.9454 38.3411 19.9529 38.3522 19.9607 38.3716" stroke="#D96207" stroke-width="0.5" stroke-linecap="round"/>
<path d="M19.0292 37.1767C19.0292 37.1367 18.9703 36.9432 18.8446 36.6931C18.7751 36.5548 18.6212 36.3198 18.461 36.0173C18.3008 35.7147 18.1307 35.3561 18.0398 35.166C17.9323 34.9412 17.9122 34.8701 17.8957 34.8081C17.8817 34.7604 17.8687 34.711 17.8564 34.6685C17.853 34.6581 17.8485 34.6482 17.8406 34.6346" stroke="#D96207" stroke-width="0.5" stroke-linecap="round"/>
<path d="M19.9486 38.2656C19.949 38.2656 19.9493 38.2656 19.9518 38.2642C19.9542 38.2627 19.9588 38.2598 19.9571 38.2585" stroke="#D96207" stroke-width="0.5" stroke-linecap="round"/>
<path d="M19.9278 38.1831C19.9278 38.1785 19.9231 38.1579 19.9119 38.1419C19.9092 38.1379 19.9074 38.1335 19.9078 38.1344C19.9156 38.1527 19.9277 38.1689 19.9426 38.1883C19.9616 38.213 19.9757 38.2515 19.9904 38.2752C20.0037 38.2967 20.0164 38.3257 20.0381 38.3788C20.0559 38.4222 20.0851 38.4841 20.1121 38.5641C20.1295 38.6154 20.1444 38.6312 20.1631 38.6507C20.1713 38.6589 20.1793 38.6661 20.1877 38.6733C20.1917 38.6769 20.1953 38.6805 20.1989 38.6925" stroke="#D96207" stroke-width="0.5" stroke-linecap="round"/>
<path d="M18.4429 35.0961C18.4511 35.1272 18.4628 35.1592 18.4779 35.1914C18.5047 35.2484 18.5091 35.2726 18.5124 35.2944C18.5168 35.3241 18.5417 35.3498 18.5791 35.4586C18.6263 35.5957 18.6152 35.6192 18.6255 35.6475C18.6388 35.6838 18.6723 35.7422 18.7064 35.8029C18.7527 35.885 18.8 35.957 18.8202 35.9959C18.8322 36.0191 18.8454 36.0519 18.8651 36.0956C18.8795 36.1275 18.8986 36.1553 18.9151 36.1837C18.9377 36.2225 18.9553 36.2756 18.9714 36.3197C18.9959 36.3867 19.0368 36.4922 19.0484 36.5284C19.0705 36.5971 19.09 36.6135 19.1309 36.6674C19.1524 36.6959 19.1622 36.7263 19.1863 36.7797C19.2134 36.8399 19.2215 36.8699 19.2298 36.8964C19.2371 36.9242 19.2701 36.9964 19.3094 37.0722C19.3241 37.1016 19.3279 37.1124 19.3319 37.1327" stroke="#D96207" stroke-width="0.5" stroke-linecap="round"/>
<path d="M60.632 39.216C56.744 39.216 53.954 36.318 53.954 32.736V32.7C53.954 29.118 56.78 26.184 60.668 26.184C64.556 26.184 67.346 29.082 67.346 32.664V32.7C67.346 36.282 64.52 39.216 60.632 39.216ZM60.668 36.66C62.9 36.66 64.448 34.896 64.448 32.736V32.7C64.448 30.54 62.864 28.74 60.632 28.74C58.4 28.74 56.852 30.504 56.852 32.664V32.7C56.852 34.86 58.436 36.66 60.668 36.66ZM69.607 39V26.4H72.595L75.907 31.728L79.219 26.4H82.207V39H79.453V30.774L75.907 36.156H75.835L72.325 30.828V39H69.607ZM96.3544 39.216C92.4664 39.216 89.6764 36.318 89.6764 32.736V32.7C89.6764 29.118 92.5024 26.184 96.3904 26.184C100.278 26.184 103.068 29.082 103.068 32.664V32.7C103.068 36.282 100.242 39.216 96.3544 39.216ZM96.3904 36.66C98.6224 36.66 100.17 34.896 100.17 32.736V32.7C100.17 30.54 98.5864 28.74 96.3544 28.74C94.1224 28.74 92.5744 30.504 92.5744 32.664V32.7C92.5744 34.86 94.1584 36.66 96.3904 36.66ZM109.723 39.18C107.815 39.18 105.889 38.514 104.377 37.164L106.015 35.202C107.149 36.138 108.337 36.732 109.777 36.732C110.911 36.732 111.595 36.282 111.595 35.544V35.508C111.595 34.806 111.163 34.446 109.057 33.906C106.519 33.258 104.881 32.556 104.881 30.054V30.018C104.881 27.732 106.717 26.22 109.291 26.22C111.127 26.22 112.693 26.796 113.971 27.822L112.531 29.91C111.415 29.136 110.317 28.668 109.255 28.668C108.193 28.668 107.635 29.154 107.635 29.766V29.802C107.635 30.63 108.175 30.9 110.353 31.458C112.909 32.124 114.349 33.042 114.349 35.238V35.274C114.349 37.776 112.441 39.18 109.723 39.18Z" fill="#D96207"/>
</svg>
