<svg width="65" height="65" viewBox="0 0 65 65" fill="none" xmlns="http://www.w3.org/2000/svg">
<path fill-rule="evenodd" clip-rule="evenodd" d="M43.2598 58.8063C47.383 58.8063 51.3373 57.1684 54.2529 54.2529C57.1684 51.3373 58.8063 47.383 58.8063 43.2598V21.63C58.8063 17.5068 57.1684 13.5525 54.2529 10.637C51.3373 7.72142 47.383 6.0835 43.2598 6.0835H21.63C17.5068 6.0835 13.5525 7.72142 10.637 10.637C7.72142 13.5525 6.0835 17.5068 6.0835 21.63V43.2598C6.0835 47.383 7.72142 51.3373 10.637 54.2529C13.5525 57.1684 17.5068 58.8063 21.63 58.8063H43.2598ZM37.071 15.5817C36.918 15.126 36.6081 14.7394 36.1965 14.491C35.7849 14.2426 35.2985 14.1485 34.8239 14.2255C34.3494 14.3024 33.9177 14.5455 33.6057 14.9113C33.2938 15.2771 33.1219 15.7418 33.1208 16.2225V40.5561C33.1208 41.7593 32.7641 42.9355 32.0956 43.9359C31.4271 44.9363 30.477 45.716 29.3655 46.1764C28.2539 46.6369 27.0307 46.7573 25.8506 46.5226C24.6706 46.2879 23.5866 45.7085 22.7358 44.8577C21.885 44.0069 21.3057 42.923 21.0709 41.7429C20.8362 40.5629 20.9567 39.3397 21.4171 38.2281C21.8775 37.1165 22.6573 36.1664 23.6577 35.4979C24.6581 34.8295 25.8343 34.4727 27.0374 34.4727C27.5752 34.4727 28.091 34.2591 28.4713 33.8788C28.8516 33.4985 29.0652 32.9827 29.0652 32.4449C29.0652 31.9071 28.8516 31.3913 28.4713 31.011C28.091 30.6307 27.5752 30.4171 27.0374 30.4171C25.0321 30.4171 23.0719 31.0117 21.4045 32.1258C19.7372 33.2399 18.4376 34.8234 17.6702 36.6761C16.9028 38.5287 16.702 40.5674 17.0933 42.5341C17.4845 44.5009 18.4501 46.3075 19.8681 47.7255C21.286 49.1434 23.0926 50.1091 25.0594 50.5003C27.0262 50.8915 29.0648 50.6907 30.9175 49.9233C32.7701 49.1559 34.3536 47.8564 35.4677 46.189C36.5818 44.5217 37.1764 42.5614 37.1764 40.5561V22.8683C39.2502 24.7933 42.1702 26.3615 45.9636 26.3615C46.5014 26.3615 47.0172 26.1479 47.3974 25.7676C47.7777 25.3873 47.9914 24.8715 47.9914 24.3337C47.9914 23.7959 47.7777 23.2801 47.3974 22.8998C47.0172 22.5195 46.5014 22.3059 45.9636 22.3059C43.3355 22.3059 41.3375 21.2244 39.8558 19.8212C38.3417 18.3828 37.4279 16.6497 37.071 15.5817Z" fill="#F9E9D2"/>
</svg>
